<svg xmlns="http://www.w3.org/2000/svg" xmlns:xlink="http://www.w3.org/1999/xlink" width="636" zoomAndPan="magnify" viewBox="0 0 476.87997 129.750003" height="173" preserveAspectRatio="xMidYMid meet" version="1.0"><defs><g/><clipPath id="bf471f177b"><path d="M 0.398438 8.417969 L 107.441406 8.417969 L 107.441406 79.53125 L 0.398438 79.53125 Z M 0.398438 8.417969 " clip-rule="nonzero"/></clipPath><clipPath id="8cff16abdc"><path d="M 0.398438 48 L 4 48 L 4 54 L 0.398438 54 Z M 0.398438 48 " clip-rule="nonzero"/></clipPath><clipPath id="d9ac1a975c"><path d="M 0.398438 36 L 37 36 L 37 65 L 0.398438 65 Z M 0.398438 36 " clip-rule="nonzero"/></clipPath><clipPath id="e902d9d51d"><path d="M 78 53 L 97 53 L 97 71.53125 L 78 71.53125 Z M 78 53 " clip-rule="nonzero"/></clipPath><clipPath id="97573d6382"><path d="M 10 53 L 29 53 L 29 71.53125 L 10 71.53125 Z M 10 53 " clip-rule="nonzero"/></clipPath><clipPath id="0d91219124"><path d="M 39 0.417969 L 107.171875 0.417969 L 107.171875 65 L 39 65 Z M 39 0.417969 " clip-rule="nonzero"/></clipPath><clipPath id="68136690eb"><rect x="0" width="108" y="0" height="72"/></clipPath><clipPath id="728e3822bb"><path d="M 149.207031 44.011719 L 191.875 44.011719 L 191.875 103.894531 L 149.207031 103.894531 Z M 149.207031 44.011719 " clip-rule="nonzero"/></clipPath><clipPath id="22fe7cdb33"><rect x="0" width="349" y="0" height="84"/></clipPath><clipPath id="ed411e3f6f"><path d="M 93 80 L 164 80 L 164 112 L 93 112 Z M 93 80 " clip-rule="nonzero"/></clipPath><clipPath id="5921833de5"><path d="M 116.738281 129.195312 L 92.707031 81.792969 L 140.109375 57.761719 L 164.144531 105.164062 Z M 116.738281 129.195312 " clip-rule="nonzero"/></clipPath><clipPath id="6109c3d3f5"><path d="M 116.738281 129.195312 L 92.707031 81.792969 L 140.109375 57.761719 L 164.144531 105.164062 Z M 116.738281 129.195312 " clip-rule="nonzero"/></clipPath><clipPath id="739d6de8f2"><path d="M 116.738281 129.195312 L 92.707031 81.792969 L 140.109375 57.761719 L 164.144531 105.164062 Z M 116.738281 129.195312 " clip-rule="nonzero"/></clipPath></defs><g clip-path="url(#bf471f177b)"><g transform="matrix(1, 0, 0, 1, 0.000000000000000056, 8)"><g clip-path="url(#68136690eb)"><path fill="#000000" d="M 11.476562 32.917969 L 35.8125 32.917969 L 35.8125 9.308594 L 17.757812 9.308594 C 17.320312 9.304688 16.902344 9.382812 16.496094 9.535156 C 16.089844 9.6875 15.722656 9.90625 15.398438 10.195312 C 15.070312 10.480469 14.808594 10.816406 14.605469 11.199219 C 14.402344 11.582031 14.277344 11.988281 14.222656 12.417969 Z M 11.476562 32.917969 " fill-opacity="1" fill-rule="nonzero"/><g clip-path="url(#8cff16abdc)"><path fill="#000000" d="M 3.019531 48.417969 L 0.128906 48.417969 L 0.128906 53.753906 L 3.019531 53.753906 Z M 3.019531 48.417969 " fill-opacity="1" fill-rule="nonzero"/></g><g clip-path="url(#d9ac1a975c)"><path fill="#000000" d="M 0.128906 42.535156 L 0.128906 44.863281 L 4.804688 44.863281 C 5.039062 44.863281 5.269531 44.90625 5.488281 44.996094 C 5.707031 45.085938 5.898438 45.214844 6.066406 45.382812 C 6.234375 45.550781 6.363281 45.742188 6.453125 45.960938 C 6.542969 46.179688 6.589844 46.40625 6.589844 46.640625 L 6.589844 55.53125 C 6.589844 55.765625 6.542969 55.992188 6.453125 56.210938 C 6.363281 56.429688 6.234375 56.621094 6.066406 56.789062 C 5.898438 56.957031 5.707031 57.085938 5.488281 57.175781 C 5.269531 57.265625 5.039062 57.308594 4.804688 57.308594 L 0.128906 57.308594 L 0.128906 60.863281 C 0.132812 61.335938 0.222656 61.789062 0.402344 62.222656 C 0.585938 62.65625 0.84375 63.042969 1.179688 63.375 C 1.511719 63.707031 1.898438 63.964844 2.332031 64.144531 C 2.769531 64.328125 3.226562 64.417969 3.699219 64.417969 L 7.410156 64.417969 C 7.308594 63.832031 7.257812 63.238281 7.265625 62.640625 C 7.265625 61.824219 7.347656 61.015625 7.503906 60.214844 C 7.664062 59.414062 7.902344 58.632812 8.214844 57.878906 C 8.53125 57.125 8.914062 56.40625 9.371094 55.726562 C 9.824219 55.046875 10.34375 54.417969 10.921875 53.84375 C 11.503906 53.265625 12.132812 52.75 12.816406 52.292969 C 13.496094 51.839844 14.21875 51.457031 14.976562 51.144531 C 15.734375 50.832031 16.515625 50.59375 17.316406 50.4375 C 18.121094 50.277344 18.933594 50.195312 19.753906 50.195312 C 20.574219 50.195312 21.386719 50.277344 22.191406 50.4375 C 22.996094 50.59375 23.777344 50.832031 24.535156 51.144531 C 25.292969 51.457031 26.011719 51.839844 26.691406 52.292969 C 27.375 52.75 28.003906 53.265625 28.585938 53.84375 C 29.164062 54.417969 29.683594 55.046875 30.136719 55.726562 C 30.59375 56.40625 30.976562 57.125 31.292969 57.878906 C 31.605469 58.632812 31.84375 59.414062 32.003906 60.214844 C 32.164062 61.015625 32.242188 61.824219 32.242188 62.640625 C 32.25 63.238281 32.203125 63.832031 32.101562 64.417969 L 36.132812 64.417969 C 35.914062 63.847656 35.808594 63.253906 35.8125 62.640625 L 35.8125 36.472656 L 10.996094 36.472656 L 10.40625 36.703125 L 2.519531 39.175781 C 2.171875 39.296875 1.847656 39.46875 1.550781 39.691406 C 1.257812 39.910156 1 40.171875 0.785156 40.472656 C 0.574219 40.773438 0.410156 41.101562 0.296875 41.453125 C 0.183594 41.804688 0.128906 42.164062 0.128906 42.535156 Z M 0.128906 42.535156 " fill-opacity="1" fill-rule="nonzero"/></g><g clip-path="url(#e902d9d51d)"><path fill="#000000" d="M 78.628906 62.640625 C 78.628906 63.226562 78.683594 63.804688 78.800781 64.375 C 78.914062 64.949219 79.082031 65.503906 79.308594 66.042969 C 79.53125 66.582031 79.804688 67.09375 80.132812 67.582031 C 80.457031 68.066406 80.828125 68.515625 81.242188 68.925781 C 81.65625 69.339844 82.105469 69.707031 82.59375 70.03125 C 83.078125 70.355469 83.59375 70.628906 84.136719 70.855469 C 84.675781 71.078125 85.234375 71.246094 85.808594 71.359375 C 86.382812 71.472656 86.964844 71.53125 87.546875 71.53125 C 88.132812 71.53125 88.714844 71.472656 89.289062 71.359375 C 89.863281 71.246094 90.421875 71.078125 90.960938 70.855469 C 91.503906 70.628906 92.015625 70.355469 92.503906 70.03125 C 92.992188 69.707031 93.441406 69.339844 93.855469 68.925781 C 94.269531 68.515625 94.640625 68.066406 94.964844 67.582031 C 95.292969 67.09375 95.566406 66.582031 95.789062 66.042969 C 96.015625 65.503906 96.183594 64.949219 96.296875 64.375 C 96.410156 63.804688 96.46875 63.226562 96.46875 62.640625 C 96.46875 62.058594 96.410156 61.480469 96.296875 60.90625 C 96.183594 60.335938 96.015625 59.777344 95.789062 59.238281 C 95.566406 58.699219 95.292969 58.1875 94.964844 57.703125 C 94.640625 57.21875 94.269531 56.769531 93.855469 56.355469 C 93.441406 55.941406 92.992188 55.574219 92.503906 55.25 C 92.015625 54.925781 91.503906 54.652344 90.960938 54.429688 C 90.421875 54.207031 89.863281 54.039062 89.289062 53.921875 C 88.714844 53.808594 88.132812 53.753906 87.546875 53.753906 C 86.964844 53.753906 86.382812 53.808594 85.808594 53.921875 C 85.234375 54.039062 84.675781 54.207031 84.136719 54.429688 C 83.59375 54.652344 83.078125 54.925781 82.59375 55.25 C 82.105469 55.574219 81.65625 55.941406 81.242188 56.355469 C 80.828125 56.769531 80.457031 57.21875 80.132812 57.703125 C 79.804688 58.1875 79.53125 58.699219 79.308594 59.238281 C 79.082031 59.777344 78.914062 60.335938 78.800781 60.90625 C 78.683594 61.480469 78.628906 62.058594 78.628906 62.640625 Z M 78.628906 62.640625 " fill-opacity="1" fill-rule="nonzero"/></g><g clip-path="url(#97573d6382)"><path fill="#000000" d="M 10.835938 62.640625 C 10.835938 63.226562 10.890625 63.804688 11.003906 64.375 C 11.121094 64.949219 11.289062 65.503906 11.511719 66.042969 C 11.738281 66.582031 12.011719 67.09375 12.335938 67.582031 C 12.664062 68.066406 13.03125 68.515625 13.445312 68.925781 C 13.859375 69.339844 14.3125 69.707031 14.796875 70.03125 C 15.285156 70.355469 15.800781 70.628906 16.339844 70.855469 C 16.882812 71.078125 17.441406 71.246094 18.015625 71.359375 C 18.589844 71.472656 19.167969 71.53125 19.753906 71.53125 C 20.339844 71.53125 20.921875 71.472656 21.496094 71.359375 C 22.070312 71.246094 22.625 71.078125 23.167969 70.855469 C 23.710938 70.628906 24.222656 70.355469 24.710938 70.03125 C 25.195312 69.707031 25.648438 69.339844 26.0625 68.925781 C 26.476562 68.515625 26.847656 68.066406 27.171875 67.582031 C 27.496094 67.09375 27.769531 66.582031 27.996094 66.042969 C 28.21875 65.503906 28.390625 64.949219 28.503906 64.375 C 28.617188 63.804688 28.675781 63.226562 28.675781 62.640625 C 28.675781 62.058594 28.617188 61.480469 28.503906 60.90625 C 28.390625 60.335938 28.21875 59.777344 27.996094 59.238281 C 27.769531 58.699219 27.496094 58.1875 27.171875 57.703125 C 26.847656 57.21875 26.476562 56.769531 26.0625 56.355469 C 25.648438 55.941406 25.195312 55.574219 24.710938 55.25 C 24.222656 54.925781 23.710938 54.652344 23.167969 54.429688 C 22.625 54.207031 22.070312 54.039062 21.496094 53.921875 C 20.921875 53.808594 20.339844 53.753906 19.753906 53.753906 C 19.167969 53.753906 18.589844 53.808594 18.015625 53.921875 C 17.441406 54.039062 16.882812 54.207031 16.339844 54.429688 C 15.800781 54.652344 15.285156 54.925781 14.796875 55.25 C 14.3125 55.574219 13.859375 55.941406 13.445312 56.355469 C 13.03125 56.769531 12.664062 57.21875 12.335938 57.703125 C 12.011719 58.1875 11.738281 58.699219 11.511719 59.238281 C 11.289062 59.777344 11.121094 60.335938 11.003906 60.90625 C 10.890625 61.480469 10.835938 62.058594 10.835938 62.640625 Z M 10.835938 62.640625 " fill-opacity="1" fill-rule="nonzero"/></g><g clip-path="url(#0d91219124)"><path fill="#000000" d="M 42.945312 0.417969 L 103.605469 0.417969 C 104.078125 0.417969 104.53125 0.511719 104.96875 0.691406 C 105.40625 0.871094 105.789062 1.128906 106.125 1.460938 C 106.460938 1.796875 106.71875 2.179688 106.898438 2.613281 C 107.082031 3.050781 107.171875 3.503906 107.171875 3.972656 L 107.171875 60.863281 C 107.171875 61.335938 107.082031 61.789062 106.898438 62.222656 C 106.71875 62.65625 106.460938 63.042969 106.125 63.375 C 105.789062 63.707031 105.40625 63.964844 104.96875 64.144531 C 104.53125 64.328125 104.078125 64.417969 103.605469 64.417969 L 99.894531 64.417969 C 99.996094 63.832031 100.042969 63.238281 100.039062 62.640625 C 100.039062 61.824219 99.957031 61.015625 99.796875 60.214844 C 99.636719 59.414062 99.398438 58.632812 99.085938 57.878906 C 98.773438 57.125 98.386719 56.40625 97.933594 55.726562 C 97.476562 55.046875 96.960938 54.417969 96.378906 53.84375 C 95.800781 53.265625 95.167969 52.75 94.488281 52.292969 C 93.804688 51.839844 93.085938 51.457031 92.328125 51.144531 C 91.570312 50.832031 90.789062 50.59375 89.984375 50.4375 C 89.179688 50.277344 88.367188 50.195312 87.546875 50.195312 C 86.730469 50.195312 85.917969 50.277344 85.113281 50.4375 C 84.308594 50.59375 83.527344 50.832031 82.769531 51.144531 C 82.011719 51.457031 81.292969 51.839844 80.609375 52.292969 C 79.929688 52.75 79.296875 53.265625 78.71875 53.84375 C 78.136719 54.417969 77.621094 55.046875 77.164062 55.726562 C 76.710938 56.40625 76.324219 57.125 76.011719 57.878906 C 75.695312 58.632812 75.460938 59.414062 75.300781 60.214844 C 75.140625 61.015625 75.058594 61.824219 75.058594 62.640625 C 75.054688 63.238281 75.101562 63.832031 75.203125 64.417969 L 41.164062 64.417969 C 40.925781 64.417969 40.699219 64.375 40.480469 64.28125 C 40.261719 64.191406 40.070312 64.0625 39.902344 63.898438 C 39.734375 63.730469 39.605469 63.539062 39.515625 63.320312 C 39.425781 63.105469 39.378906 62.878906 39.378906 62.640625 L 39.378906 3.972656 C 39.378906 3.503906 39.472656 3.050781 39.652344 2.613281 C 39.835938 2.179688 40.09375 1.796875 40.425781 1.460938 C 40.761719 1.128906 41.148438 0.871094 41.582031 0.691406 C 42.019531 0.511719 42.472656 0.417969 42.945312 0.417969 Z M 74.191406 40.164062 L 87.847656 40.175781 C 88.460938 40.175781 89.027344 40.015625 89.550781 39.699219 C 90.070312 39.382812 90.472656 38.953125 90.75 38.410156 C 91.03125 37.871094 91.148438 37.292969 91.105469 36.6875 C 91.0625 36.078125 90.859375 35.527344 90.503906 35.03125 L 87.339844 30.671875 C 87.566406 30.707031 87.796875 30.695312 88.023438 30.640625 C 88.246094 30.585938 88.453125 30.492188 88.644531 30.355469 C 88.832031 30.21875 88.988281 30.054688 89.109375 29.855469 C 89.234375 29.660156 89.3125 29.445312 89.351562 29.21875 C 89.390625 28.988281 89.386719 28.761719 89.335938 28.535156 C 89.285156 28.3125 89.195312 28.101562 89.0625 27.910156 C 88.929688 27.722656 88.765625 27.5625 88.570312 27.4375 C 88.375 27.3125 88.164062 27.226562 87.933594 27.183594 L 83.578125 26.332031 C 83.347656 26.285156 83.117188 26.285156 82.882812 26.332031 C 82.652344 26.378906 82.4375 26.46875 82.242188 26.601562 C 82.046875 26.734375 81.882812 26.898438 81.75 27.09375 C 81.621094 27.289062 81.53125 27.503906 81.484375 27.734375 L 80.632812 32.078125 C 80.585938 32.308594 80.585938 32.539062 80.632812 32.769531 C 80.679688 33 80.769531 33.214844 80.902344 33.410156 C 81.035156 33.605469 81.199219 33.769531 81.394531 33.898438 C 81.59375 34.03125 81.808594 34.117188 82.039062 34.164062 C 82.152344 34.183594 82.269531 34.195312 82.382812 34.195312 C 82.8125 34.195312 83.1875 34.058594 83.515625 33.789062 C 83.847656 33.519531 84.050781 33.175781 84.132812 32.761719 L 84.203125 32.417969 L 87.253906 36.621094 L 74.195312 36.609375 C 73.957031 36.609375 73.730469 36.65625 73.511719 36.746094 C 73.292969 36.835938 73.101562 36.964844 72.933594 37.128906 C 72.765625 37.296875 72.636719 37.488281 72.546875 37.707031 C 72.453125 37.925781 72.410156 38.152344 72.410156 38.386719 C 72.410156 38.621094 72.453125 38.847656 72.542969 39.066406 C 72.636719 39.285156 72.765625 39.476562 72.929688 39.644531 C 73.097656 39.8125 73.292969 39.9375 73.511719 40.03125 C 73.726562 40.121094 73.957031 40.164062 74.191406 40.164062 Z M 78.691406 24.679688 C 78.832031 24.871094 79 25.027344 79.199219 25.152344 C 79.402344 25.277344 79.617188 25.359375 79.851562 25.398438 C 80.085938 25.4375 80.316406 25.429688 80.546875 25.375 C 80.777344 25.320312 80.988281 25.226562 81.183594 25.089844 C 81.375 24.953125 81.53125 24.785156 81.65625 24.582031 C 81.78125 24.382812 81.863281 24.167969 81.902344 23.933594 C 81.941406 23.703125 81.933594 23.472656 81.882812 23.242188 C 81.828125 23.011719 81.734375 22.800781 81.59375 22.609375 L 74.148438 12.226562 C 73.988281 12.027344 73.808594 11.847656 73.609375 11.691406 C 73.410156 11.53125 73.195312 11.398438 72.964844 11.285156 C 72.734375 11.175781 72.496094 11.09375 72.25 11.035156 C 72 10.980469 71.746094 10.949219 71.492188 10.949219 C 71.238281 10.949219 70.984375 10.980469 70.734375 11.035156 C 70.488281 11.09375 70.25 11.175781 70.019531 11.285156 C 69.789062 11.398438 69.574219 11.53125 69.375 11.691406 C 69.175781 11.847656 68.996094 12.027344 68.835938 12.226562 L 63.96875 19.015625 C 63.933594 18.78125 63.855469 18.5625 63.738281 18.359375 C 63.617188 18.15625 63.460938 17.984375 63.273438 17.84375 C 63.082031 17.703125 62.875 17.601562 62.644531 17.542969 C 62.414062 17.484375 62.183594 17.472656 61.949219 17.503906 C 61.714844 17.539062 61.496094 17.613281 61.292969 17.734375 C 61.089844 17.855469 60.917969 18.007812 60.773438 18.195312 C 60.632812 18.386719 60.53125 18.59375 60.472656 18.820312 C 60.414062 19.050781 60.402344 19.28125 60.433594 19.515625 L 61.058594 23.894531 C 61.089844 24.105469 61.15625 24.304688 61.257812 24.496094 C 61.359375 24.683594 61.492188 24.847656 61.65625 24.988281 C 61.816406 25.128906 62 25.234375 62.199219 25.308594 C 62.402344 25.382812 62.609375 25.421875 62.824219 25.421875 C 62.910156 25.421875 62.992188 25.417969 63.074219 25.40625 L 67.46875 24.78125 C 67.703125 24.75 67.921875 24.671875 68.125 24.554688 C 68.328125 24.433594 68.5 24.277344 68.644531 24.089844 C 68.785156 23.902344 68.886719 23.691406 68.945312 23.464844 C 69.003906 23.238281 69.015625 23.007812 68.984375 22.773438 C 68.949219 22.539062 68.871094 22.320312 68.753906 22.117188 C 68.632812 21.914062 68.476562 21.742188 68.289062 21.601562 C 68.101562 21.460938 67.890625 21.359375 67.664062 21.300781 C 67.433594 21.242188 67.203125 21.230469 66.96875 21.261719 L 66.71875 21.296875 L 71.492188 14.640625 Z M 52.230469 38.410156 C 52.511719 38.953125 52.910156 39.382812 53.433594 39.703125 C 53.957031 40.019531 54.523438 40.175781 55.132812 40.175781 L 64.492188 40.167969 L 64.390625 40.269531 C 64.222656 40.4375 64.09375 40.628906 64.003906 40.847656 C 63.914062 41.0625 63.867188 41.289062 63.867188 41.527344 C 63.867188 41.761719 63.914062 41.988281 64.003906 42.207031 C 64.09375 42.425781 64.222656 42.617188 64.390625 42.785156 C 64.558594 42.953125 64.75 43.078125 64.96875 43.171875 C 65.1875 43.261719 65.414062 43.304688 65.652344 43.304688 C 65.886719 43.304688 66.117188 43.261719 66.335938 43.167969 C 66.554688 43.078125 66.746094 42.949219 66.914062 42.785156 L 70.050781 39.652344 C 70.21875 39.488281 70.347656 39.292969 70.4375 39.074219 C 70.527344 38.859375 70.574219 38.632812 70.574219 38.394531 C 70.574219 38.160156 70.527344 37.933594 70.4375 37.714844 C 70.347656 37.496094 70.21875 37.304688 70.050781 37.136719 L 66.910156 34.011719 C 66.742188 33.847656 66.546875 33.71875 66.328125 33.632812 C 66.109375 33.542969 65.882812 33.5 65.648438 33.5 C 65.414062 33.5 65.183594 33.546875 64.96875 33.636719 C 64.75 33.726562 64.558594 33.855469 64.390625 34.023438 C 64.226562 34.1875 64.097656 34.378906 64.007812 34.597656 C 63.917969 34.8125 63.871094 35.039062 63.871094 35.277344 C 63.871094 35.511719 63.914062 35.738281 64.003906 35.953125 C 64.09375 36.171875 64.222656 36.363281 64.390625 36.53125 L 64.472656 36.613281 L 55.730469 36.621094 L 61.179688 29.117188 C 61.316406 28.925781 61.414062 28.71875 61.46875 28.488281 C 61.519531 28.257812 61.53125 28.027344 61.492188 27.796875 C 61.453125 27.5625 61.371094 27.347656 61.25 27.148438 C 61.125 26.945312 60.96875 26.777344 60.777344 26.640625 C 60.585938 26.503906 60.375 26.40625 60.144531 26.351562 C 59.914062 26.296875 59.683594 26.289062 59.449219 26.324219 C 59.214844 26.363281 59 26.441406 58.796875 26.566406 C 58.597656 26.6875 58.425781 26.84375 58.289062 27.035156 L 52.484375 35.023438 C 52.125 35.519531 51.921875 36.074219 51.878906 36.683594 C 51.832031 37.292969 51.949219 37.867188 52.230469 38.410156 Z M 52.230469 38.410156 " fill-opacity="1" fill-rule="nonzero"/></g></g></g></g><g clip-path="url(#728e3822bb)"><path fill="#000000" d="M 170.539062 44.0625 C 158.777344 44.0625 149.207031 53.566406 149.207031 65.246094 C 149.207031 76.601562 168.902344 101.785156 169.738281 102.851562 L 170.539062 103.871094 L 171.339844 102.851562 C 172.179688 101.785156 191.875 76.601562 191.875 65.246094 C 191.875 53.566406 182.304688 44.0625 170.539062 44.0625 Z M 170.539062 56.167969 C 175.582031 56.167969 179.683594 60.238281 179.683594 65.246094 C 179.683594 70.25 175.582031 74.324219 170.539062 74.324219 C 165.5 74.324219 161.398438 70.25 161.398438 65.246094 C 161.398438 60.238281 165.5 56.167969 170.539062 56.167969 Z M 170.539062 56.167969 " fill-opacity="1" fill-rule="nonzero"/></g><g transform="matrix(1, 0, 0, 1, 111, 13)"><g clip-path="url(#22fe7cdb33)"><g fill="#000000" fill-opacity="1"><g transform="translate(0.353469, 65.07286)"><g><path d="M 5.03125 0 L 5.03125 -42.65625 L 20.40625 -42.65625 C 22.675781 -42.65625 24.800781 -42.4375 26.78125 -42 C 28.769531 -41.5625 30.503906 -40.828125 31.984375 -39.796875 C 33.472656 -38.773438 34.648438 -37.414062 35.515625 -35.71875 C 36.390625 -34.019531 36.828125 -31.90625 36.828125 -29.375 C 36.828125 -26.226562 36.140625 -23.640625 34.765625 -21.609375 C 33.390625 -19.585938 31.550781 -18.078125 29.25 -17.078125 L 38.921875 0 L 28.125 0 L 19.953125 -15.375 L 14.65625 -15.375 L 14.65625 0 Z M 14.65625 -23.03125 L 19.625 -23.03125 C 22.15625 -23.03125 24.082031 -23.5625 25.40625 -24.625 C 26.738281 -25.695312 27.40625 -27.28125 27.40625 -29.375 C 27.40625 -31.46875 26.738281 -32.925781 25.40625 -33.75 C 24.082031 -34.582031 22.15625 -35 19.625 -35 L 14.65625 -35 Z M 14.65625 -23.03125 "/></g></g></g><g fill="#000000" fill-opacity="1"><g transform="translate(40.463716, 65.07286)"><g/></g></g><g fill="#000000" fill-opacity="1"><g transform="translate(53.546246, 65.07286)"><g/></g></g><g fill="#000000" fill-opacity="1"><g transform="translate(66.628776, 65.07286)"><g/></g></g><g fill="#000000" fill-opacity="1"><g transform="translate(79.711376, 65.07286)"><g><path d="M 14 0.78125 C 10.46875 0.78125 7.90625 -0.375 6.3125 -2.6875 C 4.71875 -5 3.921875 -8.203125 3.921875 -12.296875 L 3.921875 -32.453125 L 13.546875 -32.453125 L 13.546875 -13.546875 C 13.546875 -11.191406 13.867188 -9.578125 14.515625 -8.703125 C 15.171875 -7.828125 16.195312 -7.390625 17.59375 -7.390625 C 18.820312 -7.390625 19.847656 -7.671875 20.671875 -8.234375 C 21.503906 -8.804688 22.398438 -9.722656 23.359375 -10.984375 L 23.359375 -32.453125 L 32.96875 -32.453125 L 32.96875 0 L 25.125 0 L 24.40625 -4.515625 L 24.203125 -4.515625 C 22.804688 -2.859375 21.3125 -1.5625 19.71875 -0.625 C 18.132812 0.3125 16.226562 0.78125 14 0.78125 Z M 14 0.78125 "/></g></g></g><g fill="#000000" fill-opacity="1"><g transform="translate(116.865773, 65.07286)"><g><path d="M 16.75 0.78125 C 14.738281 0.78125 13.023438 0.476562 11.609375 -0.125 C 10.191406 -0.738281 9.035156 -1.585938 8.140625 -2.671875 C 7.242188 -3.765625 6.585938 -5.085938 6.171875 -6.640625 C 5.765625 -8.191406 5.5625 -9.90625 5.5625 -11.78125 L 5.5625 -24.921875 L 1.109375 -24.921875 L 1.109375 -32.0625 L 6.078125 -32.453125 L 7.203125 -41.078125 L 15.171875 -41.078125 L 15.171875 -32.453125 L 22.96875 -32.453125 L 22.96875 -24.921875 L 15.171875 -24.921875 L 15.171875 -11.90625 C 15.171875 -10.070312 15.550781 -8.75 16.3125 -7.9375 C 17.082031 -7.132812 18.097656 -6.734375 19.359375 -6.734375 C 19.890625 -6.734375 20.425781 -6.796875 20.96875 -6.921875 C 21.507812 -7.054688 22 -7.210938 22.4375 -7.390625 L 23.9375 -0.390625 C 23.070312 -0.128906 22.050781 0.128906 20.875 0.390625 C 19.695312 0.648438 18.320312 0.78125 16.75 0.78125 Z M 16.75 0.78125 "/></g></g></g><g fill="#000000" fill-opacity="1"><g transform="translate(141.918813, 65.07286)"><g><path d="M 18.78125 0.78125 C 16.46875 0.78125 14.304688 0.398438 12.296875 -0.359375 C 10.296875 -1.117188 8.550781 -2.226562 7.0625 -3.6875 C 5.582031 -5.15625 4.425781 -6.9375 3.59375 -9.03125 C 2.769531 -11.125 2.359375 -13.519531 2.359375 -16.21875 C 2.359375 -18.84375 2.789062 -21.210938 3.65625 -23.328125 C 4.53125 -25.441406 5.675781 -27.226562 7.09375 -28.6875 C 8.507812 -30.144531 10.132812 -31.265625 11.96875 -32.046875 C 13.800781 -32.835938 15.695312 -33.234375 17.65625 -33.234375 C 19.96875 -33.234375 21.984375 -32.835938 23.703125 -32.046875 C 25.429688 -31.265625 26.875 -30.175781 28.03125 -28.78125 C 29.1875 -27.382812 30.046875 -25.738281 30.609375 -23.84375 C 31.179688 -21.945312 31.46875 -19.882812 31.46875 -17.65625 C 31.46875 -16.789062 31.421875 -15.960938 31.328125 -15.171875 C 31.242188 -14.390625 31.160156 -13.800781 31.078125 -13.40625 L 11.640625 -13.40625 C 12.078125 -11.050781 13.046875 -9.316406 14.546875 -8.203125 C 16.054688 -7.097656 17.898438 -6.546875 20.078125 -6.546875 C 22.390625 -6.546875 24.722656 -7.265625 27.078125 -8.703125 L 30.296875 -2.875 C 28.628906 -1.738281 26.78125 -0.84375 24.75 -0.1875 C 22.726562 0.457031 20.738281 0.78125 18.78125 0.78125 Z M 11.578125 -19.75 L 23.296875 -19.75 C 23.296875 -21.582031 22.878906 -23.066406 22.046875 -24.203125 C 21.210938 -25.335938 19.816406 -25.90625 17.859375 -25.90625 C 16.335938 -25.90625 15 -25.398438 13.84375 -24.390625 C 12.6875 -23.390625 11.929688 -21.84375 11.578125 -19.75 Z M 11.578125 -19.75 "/></g></g></g><g fill="#000000" fill-opacity="1"><g transform="translate(175.817828, 65.07286)"><g><path d="M 5.03125 0 L 6.546875 -42.65625 L 15.703125 -42.65625 L 14.328125 -22.171875 C 14.109375 -19.910156 13.898438 -17.632812 13.703125 -15.34375 C 13.503906 -13.050781 13.273438 -10.769531 13.015625 -8.5 L 13.28125 -8.5 C 14.15625 -10.769531 15.082031 -13.0625 16.0625 -15.375 C 17.039062 -17.6875 17.96875 -19.953125 18.84375 -22.171875 L 27.609375 -42.65625 L 35.203125 -42.65625 L 35.328125 -22.171875 C 35.285156 -19.953125 35.21875 -17.695312 35.125 -15.40625 C 35.039062 -13.113281 34.957031 -10.8125 34.875 -8.5 L 35.125 -8.5 C 35.914062 -10.8125 36.722656 -13.113281 37.546875 -15.40625 C 38.378906 -17.695312 39.164062 -19.953125 39.90625 -22.171875 L 47.109375 -42.65625 L 55.671875 -42.65625 L 39.125 0 L 27.796875 0 L 28.0625 -20.40625 C 28.0625 -21.800781 28.113281 -23.394531 28.21875 -25.1875 C 28.332031 -26.976562 28.476562 -28.703125 28.65625 -30.359375 L 28.390625 -30.359375 C 27.785156 -28.742188 27.144531 -27.09375 26.46875 -25.40625 C 25.789062 -23.726562 25.144531 -22.0625 24.53125 -20.40625 L 16.15625 0 Z M 5.03125 0 "/></g></g></g><g fill="#000000" fill-opacity="1"><g transform="translate(227.755474, 65.07286)"><g><path d="M 11.1875 0.78125 C 8.3125 0.78125 6.066406 -0.238281 4.453125 -2.28125 C 2.835938 -4.332031 2.03125 -7.28125 2.03125 -11.125 C 2.03125 -14.21875 2.507812 -17.101562 3.46875 -19.78125 C 4.425781 -22.46875 5.710938 -24.8125 7.328125 -26.8125 C 8.941406 -28.820312 10.796875 -30.394531 12.890625 -31.53125 C 14.984375 -32.664062 17.140625 -33.234375 19.359375 -33.234375 C 20.847656 -33.234375 22.242188 -32.847656 23.546875 -32.078125 C 24.859375 -31.316406 25.820312 -30.285156 26.4375 -28.984375 L 26.5625 -28.984375 L 28 -32.453125 L 35.125 -32.453125 L 28.65625 0 L 21.390625 0 L 21.53125 -4.25 L 21.328125 -4.25 C 19.847656 -2.726562 18.210938 -1.507812 16.421875 -0.59375 C 14.628906 0.320312 12.882812 0.78125 11.1875 0.78125 Z M 15.109375 -6.546875 C 16.203125 -6.546875 17.367188 -6.878906 18.609375 -7.546875 C 19.859375 -8.222656 21.003906 -9.476562 22.046875 -11.3125 L 24.34375 -22.828125 C 23.8125 -23.921875 23.140625 -24.707031 22.328125 -25.1875 C 21.523438 -25.664062 20.753906 -25.90625 20.015625 -25.90625 C 18.878906 -25.90625 17.785156 -25.554688 16.734375 -24.859375 C 15.691406 -24.160156 14.765625 -23.203125 13.953125 -21.984375 C 13.148438 -20.765625 12.507812 -19.320312 12.03125 -17.65625 C 11.550781 -16 11.3125 -14.191406 11.3125 -12.234375 C 11.3125 -10.273438 11.648438 -8.835938 12.328125 -7.921875 C 13.003906 -7.003906 13.929688 -6.546875 15.109375 -6.546875 Z M 15.109375 -6.546875 "/></g></g></g><g fill="#000000" fill-opacity="1"><g transform="translate(263.863275, 65.07286)"><g><path d="M 11.125 0.78125 C 10.113281 0.78125 9.0625 0.640625 7.96875 0.359375 C 6.882812 0.078125 5.828125 -0.320312 4.796875 -0.84375 C 3.773438 -1.375 2.796875 -2.03125 1.859375 -2.8125 C 0.921875 -3.59375 0.128906 -4.488281 -0.515625 -5.5 L 4.640625 -9.8125 C 6.910156 -7.101562 9.242188 -5.75 11.640625 -5.75 C 12.910156 -5.75 13.988281 -6.046875 14.875 -6.640625 C 15.769531 -7.234375 16.21875 -7.960938 16.21875 -8.828125 C 16.21875 -9.785156 15.738281 -10.570312 14.78125 -11.1875 C 13.820312 -11.800781 12.425781 -12.628906 10.59375 -13.671875 C 8.757812 -14.671875 7.210938 -15.898438 5.953125 -17.359375 C 4.691406 -18.828125 4.0625 -20.585938 4.0625 -22.640625 C 4.0625 -24.160156 4.382812 -25.570312 5.03125 -26.875 C 5.6875 -28.1875 6.582031 -29.3125 7.71875 -30.25 C 8.851562 -31.195312 10.179688 -31.929688 11.703125 -32.453125 C 13.234375 -32.972656 14.867188 -33.234375 16.609375 -33.234375 C 18.835938 -33.234375 20.832031 -32.753906 22.59375 -31.796875 C 24.363281 -30.835938 25.925781 -29.660156 27.28125 -28.265625 L 22.375 -23.625 C 21.59375 -24.445312 20.71875 -25.140625 19.75 -25.703125 C 18.789062 -26.273438 17.742188 -26.5625 16.609375 -26.5625 C 15.347656 -26.5625 14.335938 -26.265625 13.578125 -25.671875 C 12.816406 -25.085938 12.4375 -24.359375 12.4375 -23.484375 C 12.4375 -22.960938 12.585938 -22.503906 12.890625 -22.109375 C 13.191406 -21.722656 13.601562 -21.363281 14.125 -21.03125 C 14.65625 -20.707031 15.234375 -20.378906 15.859375 -20.046875 C 16.492188 -19.722656 17.140625 -19.363281 17.796875 -18.96875 C 19.753906 -17.925781 21.375 -16.707031 22.65625 -15.3125 C 23.945312 -13.914062 24.59375 -12.101562 24.59375 -9.875 C 24.59375 -8.3125 24.253906 -6.875 23.578125 -5.5625 C 22.910156 -4.25 21.984375 -3.125 20.796875 -2.1875 C 19.617188 -1.25 18.203125 -0.519531 16.546875 0 C 14.890625 0.519531 13.082031 0.78125 11.125 0.78125 Z M 11.125 0.78125 "/></g></g></g><g fill="#000000" fill-opacity="1"><g transform="translate(291.598253, 65.07286)"><g><path d="M 13.28125 0.78125 C 10.007812 0.78125 7.65625 -0.0234375 6.21875 -1.640625 C 4.78125 -3.253906 4.0625 -5.300781 4.0625 -7.78125 C 4.0625 -8.476562 4.113281 -9.164062 4.21875 -9.84375 C 4.332031 -10.519531 4.453125 -11.207031 4.578125 -11.90625 L 7.390625 -25.453125 L 3.078125 -25.453125 L 4.390625 -32.0625 L 9.15625 -32.453125 L 11.90625 -40.953125 L 19.4375 -40.953125 L 17.796875 -32.453125 L 25.1875 -32.453125 L 23.8125 -25.453125 L 16.21875 -25.453125 L 13.40625 -11.515625 C 13.320312 -11.117188 13.28125 -10.742188 13.28125 -10.390625 C 13.28125 -10.046875 13.28125 -9.703125 13.28125 -9.359375 C 13.28125 -7.265625 14.390625 -6.21875 16.609375 -6.21875 C 17.097656 -6.21875 17.554688 -6.28125 17.984375 -6.40625 C 18.421875 -6.539062 18.859375 -6.71875 19.296875 -6.9375 L 20.875 -0.65625 C 20 -0.300781 18.925781 0.0234375 17.65625 0.328125 C 16.394531 0.628906 14.9375 0.78125 13.28125 0.78125 Z M 13.28125 0.78125 "/></g></g></g><g fill="#000000" fill-opacity="1"><g transform="translate(315.604696, 65.07286)"><g><path d="M 1.890625 -13.078125 C 1.890625 -16.085938 2.425781 -18.820312 3.5 -21.28125 C 4.570312 -23.75 5.96875 -25.867188 7.6875 -27.640625 C 9.40625 -29.410156 11.332031 -30.785156 13.46875 -31.765625 C 15.613281 -32.742188 17.773438 -33.234375 19.953125 -33.234375 C 21.867188 -33.234375 23.503906 -32.914062 24.859375 -32.28125 C 26.210938 -31.65625 27.3125 -30.785156 28.15625 -29.671875 C 29.007812 -28.554688 29.617188 -27.269531 29.984375 -25.8125 C 30.359375 -24.351562 30.546875 -22.769531 30.546875 -21.0625 C 30.546875 -20.28125 30.476562 -19.503906 30.34375 -18.734375 C 30.21875 -17.972656 30.066406 -17.253906 29.890625 -16.578125 C 29.722656 -15.910156 29.539062 -15.320312 29.34375 -14.8125 C 29.144531 -14.3125 28.976562 -13.929688 28.84375 -13.671875 L 10.40625 -13.671875 C 10.269531 -10.960938 10.910156 -9 12.328125 -7.78125 C 13.742188 -6.5625 15.519531 -5.953125 17.65625 -5.953125 C 18.664062 -5.953125 19.710938 -6.191406 20.796875 -6.671875 C 21.890625 -7.148438 22.851562 -7.675781 23.6875 -8.25 L 26.828125 -2.609375 C 25.515625 -1.703125 23.875 -0.910156 21.90625 -0.234375 C 19.945312 0.441406 17.703125 0.78125 15.171875 0.78125 C 13.210938 0.78125 11.414062 0.46875 9.78125 -0.15625 C 8.144531 -0.789062 6.75 -1.707031 5.59375 -2.90625 C 4.4375 -4.101562 3.53125 -5.550781 2.875 -7.25 C 2.21875 -8.957031 1.890625 -10.898438 1.890625 -13.078125 Z M 11.125 -19.171875 L 22.890625 -19.171875 C 23.109375 -19.910156 23.21875 -20.71875 23.21875 -21.59375 C 23.21875 -22.894531 22.898438 -24.015625 22.265625 -24.953125 C 21.640625 -25.890625 20.5 -26.359375 18.84375 -26.359375 C 17.3125 -26.359375 15.828125 -25.757812 14.390625 -24.5625 C 12.953125 -23.363281 11.863281 -21.566406 11.125 -19.171875 Z M 11.125 -19.171875 "/></g></g></g></g></g><g clip-path="url(#ed411e3f6f)"><g clip-path="url(#5921833de5)"><g clip-path="url(#6109c3d3f5)"><g clip-path="url(#739d6de8f2)"><path fill="#040404" d="M 124.902344 104.234375 C 136.429688 108.007812 148.332031 107 159.601562 101.691406 C 160.84375 101.109375 162.332031 101.621094 162.953125 102.851562 L 163.003906 102.953125 C 163.621094 104.183594 163.128906 105.6875 161.898438 106.300781 C 149.695312 112.386719 136.046875 113.457031 123.253906 109.265625 C 110.457031 105.074219 100.089844 96.140625 93.851562 84.015625 C 93.226562 82.792969 93.710938 81.285156 94.9375 80.664062 L 95.042969 80.609375 C 96.273438 79.984375 97.769531 80.449219 98.433594 81.660156 C 104.375 92.601562 113.375 100.457031 124.902344 104.234375 Z M 124.902344 104.234375 " fill-opacity="1" fill-rule="nonzero"/></g></g></g></g></svg>