<svg xmlns="http://www.w3.org/2000/svg" xmlns:xlink="http://www.w3.org/1999/xlink" width="636" zoomAndPan="magnify" viewBox="0 0 476.87997 129.750003" height="173" preserveAspectRatio="xMidYMid meet" version="1.0"><defs><g/><clipPath id="de907d941f"><path d="M 0.398438 8.417969 L 107.441406 8.417969 L 107.441406 79.53125 L 0.398438 79.53125 Z M 0.398438 8.417969 " clip-rule="nonzero"/></clipPath><clipPath id="30225c9179"><path d="M 0.398438 48 L 4 48 L 4 54 L 0.398438 54 Z M 0.398438 48 " clip-rule="nonzero"/></clipPath><clipPath id="100994755a"><path d="M 0.398438 36 L 37 36 L 37 65 L 0.398438 65 Z M 0.398438 36 " clip-rule="nonzero"/></clipPath><clipPath id="da9b78ca69"><path d="M 78 53 L 97 53 L 97 71.53125 L 78 71.53125 Z M 78 53 " clip-rule="nonzero"/></clipPath><clipPath id="e66465c54a"><path d="M 11 53 L 29 53 L 29 71.53125 L 11 71.53125 Z M 11 53 " clip-rule="nonzero"/></clipPath><clipPath id="42e3ddd673"><path d="M 39 0.417969 L 107.171875 0.417969 L 107.171875 65 L 39 65 Z M 39 0.417969 " clip-rule="nonzero"/></clipPath><clipPath id="d0a1c3ac08"><rect x="0" width="108" y="0" height="72"/></clipPath><clipPath id="9bd29d24d9"><path d="M 149.207031 44.011719 L 191.875 44.011719 L 191.875 103.894531 L 149.207031 103.894531 Z M 149.207031 44.011719 " clip-rule="nonzero"/></clipPath><clipPath id="b55753a418"><path d="M 93 80 L 164 80 L 164 112 L 93 112 Z M 93 80 " clip-rule="nonzero"/></clipPath><clipPath id="1d84e0cf66"><path d="M 116.738281 129.195312 L 92.707031 81.792969 L 140.109375 57.761719 L 164.144531 105.164062 Z M 116.738281 129.195312 " clip-rule="nonzero"/></clipPath><clipPath id="7538f21b94"><path d="M 116.738281 129.195312 L 92.707031 81.792969 L 140.109375 57.761719 L 164.144531 105.164062 Z M 116.738281 129.195312 " clip-rule="nonzero"/></clipPath></defs><g clip-path="url(#de907d941f)"><g transform="matrix(1, 0, 0, 1, 0.000000000000000056, 8)"><g clip-path="url(#d0a1c3ac08)"><path fill="#ffffff" d="M 11.714844 32.949219 L 35.988281 32.949219 L 35.988281 9.316406 L 17.980469 9.316406 C 17.546875 9.316406 17.128906 9.390625 16.722656 9.542969 C 16.316406 9.695312 15.953125 9.917969 15.628906 10.203125 C 15.304688 10.492188 15.039062 10.824219 14.839844 11.210938 C 14.636719 11.59375 14.507812 12 14.457031 12.429688 Z M 11.714844 32.949219 " fill-opacity="1" fill-rule="nonzero"/><g clip-path="url(#30225c9179)"><path fill="#ffffff" d="M 3.28125 48.464844 L 0.398438 48.464844 L 0.398438 53.804688 L 3.28125 53.804688 Z M 3.28125 48.464844 " fill-opacity="1" fill-rule="nonzero"/></g><g clip-path="url(#100994755a)"><path fill="#ffffff" d="M 0.398438 42.574219 L 0.398438 44.90625 L 5.0625 44.90625 C 5.296875 44.90625 5.523438 44.949219 5.742188 45.042969 C 5.960938 45.132812 6.152344 45.257812 6.320312 45.425781 C 6.488281 45.59375 6.617188 45.785156 6.707031 46.003906 C 6.796875 46.222656 6.839844 46.449219 6.839844 46.6875 L 6.839844 55.585938 C 6.839844 55.820312 6.796875 56.046875 6.707031 56.265625 C 6.617188 56.484375 6.488281 56.679688 6.320312 56.84375 C 6.152344 57.011719 5.960938 57.140625 5.742188 57.230469 C 5.523438 57.320312 5.296875 57.363281 5.0625 57.363281 L 0.398438 57.363281 L 0.398438 60.921875 C 0.398438 61.394531 0.492188 61.847656 0.671875 62.285156 C 0.851562 62.71875 1.109375 63.105469 1.445312 63.4375 C 1.777344 63.769531 2.160156 64.027344 2.597656 64.207031 C 3.03125 64.390625 3.484375 64.480469 3.957031 64.484375 L 7.660156 64.484375 C 7.558594 63.894531 7.511719 63.300781 7.515625 62.703125 C 7.515625 61.886719 7.597656 61.074219 7.757812 60.273438 C 7.914062 59.46875 8.152344 58.691406 8.464844 57.9375 C 8.777344 57.179688 9.160156 56.460938 9.617188 55.78125 C 10.070312 55.101562 10.585938 54.472656 11.164062 53.894531 C 11.742188 53.316406 12.375 52.800781 13.054688 52.34375 C 13.734375 51.890625 14.453125 51.507812 15.207031 51.195312 C 15.960938 50.882812 16.742188 50.644531 17.542969 50.484375 C 18.347656 50.324219 19.15625 50.246094 19.972656 50.246094 C 20.792969 50.246094 21.601562 50.324219 22.402344 50.484375 C 23.207031 50.644531 23.984375 50.882812 24.742188 51.195312 C 25.496094 51.507812 26.214844 51.890625 26.894531 52.34375 C 27.574219 52.800781 28.203125 53.316406 28.78125 53.894531 C 29.359375 54.472656 29.878906 55.101562 30.332031 55.78125 C 30.785156 56.460938 31.167969 57.179688 31.484375 57.9375 C 31.796875 58.691406 32.03125 59.46875 32.191406 60.273438 C 32.351562 61.074219 32.429688 61.886719 32.429688 62.703125 C 32.4375 63.300781 32.390625 63.894531 32.289062 64.484375 L 36.308594 64.484375 C 36.09375 63.910156 35.988281 63.316406 35.988281 62.703125 L 35.988281 36.507812 L 11.234375 36.507812 L 10.648438 36.738281 L 2.785156 39.210938 C 2.433594 39.335938 2.113281 39.507812 1.816406 39.726562 C 1.523438 39.949219 1.269531 40.210938 1.054688 40.511719 C 0.839844 40.816406 0.675781 41.140625 0.566406 41.492188 C 0.453125 41.847656 0.398438 42.207031 0.398438 42.574219 Z M 0.398438 42.574219 " fill-opacity="1" fill-rule="nonzero"/></g><g clip-path="url(#da9b78ca69)"><path fill="#ffffff" d="M 78.699219 62.703125 C 78.699219 63.289062 78.757812 63.867188 78.871094 64.4375 C 78.984375 65.011719 79.152344 65.566406 79.378906 66.109375 C 79.601562 66.648438 79.875 67.160156 80.199219 67.644531 C 80.523438 68.132812 80.894531 68.582031 81.304688 68.996094 C 81.71875 69.40625 82.167969 69.777344 82.65625 70.101562 C 83.140625 70.425781 83.652344 70.699219 84.191406 70.921875 C 84.734375 71.148438 85.289062 71.316406 85.863281 71.429688 C 86.433594 71.542969 87.015625 71.601562 87.597656 71.601562 C 88.183594 71.601562 88.761719 71.542969 89.332031 71.429688 C 89.90625 71.316406 90.464844 71.148438 91.003906 70.921875 C 91.542969 70.699219 92.054688 70.425781 92.542969 70.101562 C 93.027344 69.777344 93.476562 69.40625 93.890625 68.996094 C 94.304688 68.582031 94.671875 68.132812 94.996094 67.644531 C 95.320312 67.160156 95.59375 66.648438 95.820312 66.109375 C 96.042969 65.566406 96.210938 65.011719 96.324219 64.4375 C 96.4375 63.867188 96.496094 63.289062 96.496094 62.703125 C 96.496094 62.117188 96.4375 61.539062 96.324219 60.96875 C 96.210938 60.394531 96.042969 59.835938 95.820312 59.296875 C 95.59375 58.757812 95.320312 58.246094 94.996094 57.757812 C 94.671875 57.273438 94.304688 56.824219 93.890625 56.410156 C 93.476562 56 93.027344 55.628906 92.542969 55.304688 C 92.054688 54.980469 91.542969 54.707031 91.003906 54.484375 C 90.464844 54.257812 89.90625 54.089844 89.332031 53.976562 C 88.761719 53.863281 88.183594 53.804688 87.597656 53.804688 C 87.015625 53.804688 86.433594 53.863281 85.863281 53.976562 C 85.289062 54.089844 84.734375 54.257812 84.191406 54.484375 C 83.652344 54.707031 83.140625 54.980469 82.65625 55.304688 C 82.167969 55.628906 81.71875 56 81.304688 56.410156 C 80.894531 56.824219 80.523438 57.273438 80.199219 57.757812 C 79.875 58.246094 79.601562 58.757812 79.378906 59.296875 C 79.152344 59.835938 78.984375 60.394531 78.871094 60.96875 C 78.757812 61.539062 78.699219 62.117188 78.699219 62.703125 Z M 78.699219 62.703125 " fill-opacity="1" fill-rule="nonzero"/></g><g clip-path="url(#e66465c54a)"><path fill="#ffffff" d="M 11.074219 62.703125 C 11.074219 63.289062 11.132812 63.867188 11.246094 64.4375 C 11.359375 65.011719 11.53125 65.566406 11.753906 66.109375 C 11.976562 66.648438 12.25 67.160156 12.574219 67.644531 C 12.898438 68.132812 13.269531 68.582031 13.683594 68.996094 C 14.09375 69.40625 14.542969 69.777344 15.03125 70.101562 C 15.515625 70.425781 16.027344 70.699219 16.570312 70.921875 C 17.109375 71.148438 17.664062 71.316406 18.238281 71.429688 C 18.8125 71.542969 19.390625 71.601562 19.972656 71.601562 C 20.558594 71.601562 21.136719 71.542969 21.710938 71.429688 C 22.28125 71.316406 22.839844 71.148438 23.378906 70.921875 C 23.917969 70.699219 24.429688 70.425781 24.917969 70.101562 C 25.402344 69.777344 25.851562 69.40625 26.265625 68.996094 C 26.679688 68.582031 27.046875 68.132812 27.371094 67.644531 C 27.695312 67.160156 27.972656 66.648438 28.195312 66.109375 C 28.417969 65.566406 28.585938 65.011719 28.699219 64.4375 C 28.816406 63.867188 28.871094 63.289062 28.871094 62.703125 C 28.871094 62.117188 28.816406 61.539062 28.699219 60.96875 C 28.585938 60.394531 28.417969 59.835938 28.195312 59.296875 C 27.972656 58.757812 27.695312 58.246094 27.371094 57.757812 C 27.046875 57.273438 26.679688 56.824219 26.265625 56.410156 C 25.851562 56 25.402344 55.628906 24.917969 55.304688 C 24.429688 54.980469 23.917969 54.707031 23.378906 54.484375 C 22.839844 54.257812 22.28125 54.089844 21.710938 53.976562 C 21.136719 53.863281 20.558594 53.804688 19.972656 53.804688 C 19.390625 53.804688 18.8125 53.863281 18.238281 53.976562 C 17.664062 54.089844 17.109375 54.257812 16.570312 54.484375 C 16.027344 54.707031 15.515625 54.980469 15.03125 55.304688 C 14.542969 55.628906 14.09375 56 13.683594 56.410156 C 13.269531 56.824219 12.898438 57.273438 12.574219 57.757812 C 12.25 58.246094 11.976562 58.757812 11.753906 59.296875 C 11.53125 59.835938 11.359375 60.394531 11.246094 60.96875 C 11.132812 61.539062 11.074219 62.117188 11.074219 62.703125 Z M 11.074219 62.703125 " fill-opacity="1" fill-rule="nonzero"/></g><g clip-path="url(#42e3ddd673)"><path fill="#ffffff" d="M 43.109375 0.417969 L 103.613281 0.417969 C 104.085938 0.417969 104.539062 0.511719 104.976562 0.691406 C 105.410156 0.871094 105.792969 1.128906 106.128906 1.464844 C 106.460938 1.796875 106.71875 2.179688 106.898438 2.617188 C 107.082031 3.050781 107.171875 3.503906 107.171875 3.976562 L 107.171875 60.921875 C 107.171875 61.394531 107.082031 61.847656 106.898438 62.285156 C 106.71875 62.71875 106.460938 63.105469 106.128906 63.4375 C 105.792969 63.769531 105.410156 64.027344 104.976562 64.207031 C 104.539062 64.390625 104.085938 64.480469 103.613281 64.484375 L 99.914062 64.484375 C 100.015625 63.894531 100.0625 63.300781 100.054688 62.703125 C 100.054688 61.886719 99.976562 61.074219 99.816406 60.273438 C 99.65625 59.46875 99.417969 58.691406 99.105469 57.9375 C 98.792969 57.179688 98.410156 56.460938 97.957031 55.78125 C 97.5 55.101562 96.984375 54.472656 96.40625 53.894531 C 95.828125 53.316406 95.199219 52.800781 94.519531 52.34375 C 93.839844 51.890625 93.121094 51.507812 92.363281 51.195312 C 91.609375 50.882812 90.832031 50.644531 90.027344 50.484375 C 89.226562 50.324219 88.414062 50.246094 87.597656 50.246094 C 86.78125 50.246094 85.96875 50.324219 85.167969 50.484375 C 84.367188 50.644531 83.585938 50.882812 82.832031 51.195312 C 82.074219 51.507812 81.355469 51.890625 80.675781 52.34375 C 79.996094 52.800781 79.367188 53.316406 78.789062 53.894531 C 78.210938 54.472656 77.695312 55.101562 77.242188 55.78125 C 76.785156 56.460938 76.402344 57.179688 76.089844 57.9375 C 75.777344 58.691406 75.539062 59.46875 75.378906 60.273438 C 75.222656 61.074219 75.140625 61.886719 75.140625 62.703125 C 75.132812 63.300781 75.183594 63.894531 75.285156 64.484375 L 41.328125 64.484375 C 41.09375 64.480469 40.867188 64.4375 40.648438 64.347656 C 40.429688 64.253906 40.238281 64.125 40.070312 63.960938 C 39.90625 63.792969 39.777344 63.601562 39.6875 63.382812 C 39.59375 63.164062 39.550781 62.9375 39.550781 62.703125 L 39.550781 3.976562 C 39.550781 3.503906 39.640625 3.050781 39.824219 2.617188 C 40.003906 2.179688 40.261719 1.796875 40.59375 1.464844 C 40.929688 1.128906 41.3125 0.871094 41.75 0.691406 C 42.183594 0.511719 42.636719 0.417969 43.109375 0.417969 Z M 74.277344 40.203125 L 87.898438 40.214844 C 88.507812 40.214844 89.074219 40.054688 89.59375 39.738281 C 90.113281 39.421875 90.515625 38.992188 90.792969 38.449219 C 91.074219 37.90625 91.191406 37.332031 91.144531 36.722656 C 91.101562 36.113281 90.902344 35.5625 90.546875 35.066406 L 87.386719 30.703125 C 87.617188 30.734375 87.84375 30.726562 88.070312 30.671875 C 88.296875 30.617188 88.503906 30.519531 88.691406 30.382812 C 88.878906 30.25 89.03125 30.082031 89.15625 29.886719 C 89.277344 29.6875 89.359375 29.476562 89.398438 29.246094 C 89.4375 29.019531 89.429688 28.789062 89.378906 28.566406 C 89.332031 28.339844 89.238281 28.128906 89.105469 27.9375 C 88.976562 27.75 88.8125 27.589844 88.617188 27.464844 C 88.421875 27.335938 88.210938 27.253906 87.984375 27.207031 L 83.640625 26.355469 C 83.40625 26.3125 83.175781 26.3125 82.945312 26.359375 C 82.714844 26.40625 82.5 26.496094 82.304688 26.625 C 82.109375 26.757812 81.945312 26.921875 81.8125 27.121094 C 81.683594 27.316406 81.59375 27.53125 81.550781 27.761719 L 80.699219 32.109375 C 80.652344 32.339844 80.652344 32.570312 80.699219 32.800781 C 80.746094 33.035156 80.835938 33.246094 80.96875 33.441406 C 81.101562 33.640625 81.265625 33.800781 81.460938 33.933594 C 81.65625 34.0625 81.871094 34.152344 82.101562 34.195312 C 82.214844 34.21875 82.332031 34.230469 82.445312 34.230469 C 82.871094 34.230469 83.25 34.09375 83.578125 33.824219 C 83.90625 33.554688 84.109375 33.210938 84.191406 32.792969 L 84.257812 32.449219 L 87.304688 36.65625 L 74.277344 36.644531 C 74.042969 36.644531 73.8125 36.691406 73.597656 36.78125 C 73.378906 36.871094 73.1875 37 73.019531 37.164062 C 72.851562 37.332031 72.722656 37.523438 72.632812 37.742188 C 72.542969 37.960938 72.496094 38.1875 72.496094 38.425781 C 72.496094 38.660156 72.542969 38.886719 72.632812 39.105469 C 72.722656 39.324219 72.851562 39.515625 73.015625 39.683594 C 73.183594 39.851562 73.375 39.976562 73.59375 40.070312 C 73.8125 40.160156 74.039062 40.203125 74.277344 40.203125 Z M 78.765625 24.703125 C 78.902344 24.894531 79.070312 25.054688 79.269531 25.175781 C 79.472656 25.300781 79.6875 25.382812 79.921875 25.421875 C 80.152344 25.460938 80.386719 25.453125 80.613281 25.398438 C 80.84375 25.347656 81.054688 25.25 81.246094 25.113281 C 81.4375 24.976562 81.597656 24.808594 81.722656 24.605469 C 81.847656 24.40625 81.929688 24.191406 81.96875 23.957031 C 82.007812 23.726562 82 23.492188 81.945312 23.265625 C 81.890625 23.035156 81.796875 22.824219 81.660156 22.632812 L 74.230469 12.238281 C 74.070312 12.039062 73.894531 11.859375 73.695312 11.703125 C 73.496094 11.542969 73.28125 11.40625 73.050781 11.296875 C 72.824219 11.1875 72.585938 11.101562 72.335938 11.046875 C 72.085938 10.988281 71.835938 10.960938 71.582031 10.960938 C 71.328125 10.960938 71.074219 10.988281 70.828125 11.046875 C 70.578125 11.101562 70.339844 11.1875 70.113281 11.296875 C 69.882812 11.40625 69.667969 11.542969 69.46875 11.703125 C 69.269531 11.859375 69.09375 12.039062 68.933594 12.238281 L 64.074219 19.03125 C 64.042969 18.796875 63.964844 18.582031 63.84375 18.378906 C 63.726562 18.175781 63.570312 18.003906 63.382812 17.859375 C 63.195312 17.71875 62.984375 17.621094 62.757812 17.558594 C 62.527344 17.5 62.296875 17.488281 62.0625 17.523438 C 61.832031 17.554688 61.613281 17.632812 61.410156 17.75 C 61.207031 17.871094 61.035156 18.027344 60.890625 18.214844 C 60.75 18.402344 60.648438 18.613281 60.589844 18.839844 C 60.53125 19.066406 60.519531 19.300781 60.550781 19.53125 L 61.171875 23.917969 C 61.203125 24.128906 61.269531 24.328125 61.371094 24.519531 C 61.476562 24.707031 61.605469 24.871094 61.769531 25.011719 C 61.929688 25.152344 62.113281 25.257812 62.3125 25.335938 C 62.515625 25.410156 62.722656 25.445312 62.9375 25.445312 C 63.019531 25.445312 63.101562 25.441406 63.1875 25.429688 L 67.570312 24.808594 C 67.800781 24.773438 68.019531 24.695312 68.222656 24.578125 C 68.425781 24.457031 68.597656 24.300781 68.742188 24.113281 C 68.882812 23.925781 68.980469 23.714844 69.039062 23.488281 C 69.097656 23.257812 69.113281 23.027344 69.078125 22.792969 C 69.046875 22.5625 68.96875 22.34375 68.847656 22.140625 C 68.730469 21.9375 68.574219 21.765625 68.386719 21.621094 C 68.199219 21.480469 67.988281 21.378906 67.761719 21.320312 C 67.53125 21.261719 67.300781 21.25 67.070312 21.28125 L 66.820312 21.316406 L 71.582031 14.65625 Z M 52.371094 38.449219 C 52.648438 38.992188 53.046875 39.421875 53.566406 39.738281 C 54.089844 40.058594 54.65625 40.214844 55.265625 40.214844 L 64.597656 40.207031 L 64.5 40.308594 C 64.332031 40.476562 64.203125 40.667969 64.113281 40.886719 C 64.023438 41.105469 63.976562 41.332031 63.976562 41.566406 C 63.976562 41.804688 64.019531 42.03125 64.113281 42.25 C 64.203125 42.46875 64.332031 42.660156 64.496094 42.828125 C 64.664062 42.992188 64.855469 43.121094 65.074219 43.210938 C 65.292969 43.300781 65.519531 43.347656 65.757812 43.347656 C 65.992188 43.347656 66.21875 43.300781 66.4375 43.210938 C 66.65625 43.121094 66.847656 42.992188 67.015625 42.824219 L 70.144531 39.691406 C 70.3125 39.523438 70.441406 39.332031 70.53125 39.113281 C 70.621094 38.894531 70.667969 38.667969 70.664062 38.433594 C 70.664062 38.195312 70.621094 37.96875 70.53125 37.75 C 70.4375 37.53125 70.308594 37.339844 70.144531 37.175781 L 67.007812 34.046875 C 66.84375 33.878906 66.648438 33.753906 66.433594 33.664062 C 66.214844 33.574219 65.988281 33.53125 65.753906 33.53125 C 65.515625 33.53125 65.289062 33.578125 65.074219 33.667969 C 64.855469 33.761719 64.664062 33.886719 64.5 34.054688 C 64.332031 34.222656 64.203125 34.414062 64.113281 34.632812 C 64.023438 34.847656 63.980469 35.074219 63.980469 35.308594 C 63.980469 35.546875 64.023438 35.769531 64.113281 35.988281 C 64.203125 36.207031 64.332031 36.398438 64.496094 36.566406 L 64.582031 36.648438 L 55.859375 36.65625 L 61.296875 29.148438 C 61.433594 28.957031 61.527344 28.746094 61.582031 28.515625 C 61.636719 28.285156 61.644531 28.054688 61.605469 27.824219 C 61.570312 27.589844 61.488281 27.375 61.363281 27.171875 C 61.242188 26.972656 61.082031 26.804688 60.890625 26.667969 C 60.703125 26.527344 60.492188 26.433594 60.261719 26.378906 C 60.035156 26.324219 59.800781 26.3125 59.570312 26.351562 C 59.335938 26.386719 59.121094 26.46875 58.917969 26.589844 C 58.71875 26.714844 58.550781 26.871094 58.410156 27.0625 L 52.621094 35.058594 C 52.261719 35.554688 52.0625 36.109375 52.015625 36.71875 C 51.972656 37.328125 52.089844 37.902344 52.371094 38.449219 Z M 52.371094 38.449219 " fill-opacity="1" fill-rule="nonzero"/></g></g></g></g><g clip-path="url(#9bd29d24d9)"><path fill="#ffffff" d="M 170.476562 44.0625 C 158.75 44.0625 149.207031 53.605469 149.207031 65.332031 C 149.207031 76.738281 168.84375 102.019531 169.675781 103.09375 L 170.476562 104.117188 L 171.273438 103.09375 C 172.109375 102.019531 191.746094 76.738281 191.746094 65.332031 C 191.746094 53.605469 182.203125 44.0625 170.476562 44.0625 Z M 170.476562 56.214844 C 175.503906 56.214844 179.589844 60.304688 179.589844 65.332031 C 179.589844 70.359375 175.503906 74.445312 170.476562 74.445312 C 165.449219 74.445312 161.359375 70.359375 161.359375 65.332031 C 161.359375 60.304688 165.449219 56.214844 170.476562 56.214844 Z M 170.476562 56.214844 " fill-opacity="1" fill-rule="nonzero"/></g><g fill="#ffffff" fill-opacity="1"><g transform="translate(111.364597, 79.46678)"><g><path d="M 5.03125 0 L 5.03125 -42.65625 L 20.40625 -42.65625 C 22.675781 -42.65625 24.800781 -42.4375 26.78125 -42 C 28.769531 -41.5625 30.503906 -40.828125 31.984375 -39.796875 C 33.472656 -38.773438 34.648438 -37.414062 35.515625 -35.71875 C 36.390625 -34.019531 36.828125 -31.90625 36.828125 -29.375 C 36.828125 -26.226562 36.140625 -23.640625 34.765625 -21.609375 C 33.390625 -19.585938 31.550781 -18.078125 29.25 -17.078125 L 38.921875 0 L 28.125 0 L 19.953125 -15.375 L 14.65625 -15.375 L 14.65625 0 Z M 14.65625 -23.03125 L 19.625 -23.03125 C 22.15625 -23.03125 24.082031 -23.5625 25.40625 -24.625 C 26.738281 -25.695312 27.40625 -27.28125 27.40625 -29.375 C 27.40625 -31.46875 26.738281 -32.925781 25.40625 -33.75 C 24.082031 -34.582031 22.15625 -35 19.625 -35 L 14.65625 -35 Z M 14.65625 -23.03125 "/></g></g></g><g fill="#ffffff" fill-opacity="1"><g transform="translate(151.470914, 79.46678)"><g/></g></g><g fill="#ffffff" fill-opacity="1"><g transform="translate(164.554305, 79.46678)"><g/></g></g><g fill="#ffffff" fill-opacity="1"><g transform="translate(177.637697, 79.46678)"><g/></g></g><g fill="#ffffff" fill-opacity="1"><g transform="translate(190.723407, 79.46678)"><g><path d="M 14 0.78125 C 10.46875 0.78125 7.90625 -0.375 6.3125 -2.6875 C 4.71875 -5 3.921875 -8.203125 3.921875 -12.296875 L 3.921875 -32.453125 L 13.546875 -32.453125 L 13.546875 -13.546875 C 13.546875 -11.191406 13.867188 -9.578125 14.515625 -8.703125 C 15.171875 -7.828125 16.195312 -7.390625 17.59375 -7.390625 C 18.820312 -7.390625 19.847656 -7.671875 20.671875 -8.234375 C 21.503906 -8.804688 22.398438 -9.722656 23.359375 -10.984375 L 23.359375 -32.453125 L 32.96875 -32.453125 L 32.96875 0 L 25.125 0 L 24.40625 -4.515625 L 24.203125 -4.515625 C 22.804688 -2.859375 21.3125 -1.5625 19.71875 -0.625 C 18.132812 0.3125 16.226562 0.78125 14 0.78125 Z M 14 0.78125 "/></g></g></g><g fill="#ffffff" fill-opacity="1"><g transform="translate(227.880234, 79.46678)"><g><path d="M 16.75 0.78125 C 14.738281 0.78125 13.023438 0.476562 11.609375 -0.125 C 10.191406 -0.738281 9.035156 -1.585938 8.140625 -2.671875 C 7.242188 -3.765625 6.585938 -5.085938 6.171875 -6.640625 C 5.765625 -8.191406 5.5625 -9.90625 5.5625 -11.78125 L 5.5625 -24.921875 L 1.109375 -24.921875 L 1.109375 -32.0625 L 6.078125 -32.453125 L 7.203125 -41.078125 L 15.171875 -41.078125 L 15.171875 -32.453125 L 22.96875 -32.453125 L 22.96875 -24.921875 L 15.171875 -24.921875 L 15.171875 -11.90625 C 15.171875 -10.070312 15.550781 -8.75 16.3125 -7.9375 C 17.082031 -7.132812 18.097656 -6.734375 19.359375 -6.734375 C 19.890625 -6.734375 20.425781 -6.796875 20.96875 -6.921875 C 21.507812 -7.054688 22 -7.210938 22.4375 -7.390625 L 23.9375 -0.390625 C 23.070312 -0.128906 22.050781 0.128906 20.875 0.390625 C 19.695312 0.648438 18.320312 0.78125 16.75 0.78125 Z M 16.75 0.78125 "/></g></g></g><g fill="#ffffff" fill-opacity="1"><g transform="translate(252.934929, 79.46678)"><g><path d="M 18.78125 0.78125 C 16.46875 0.78125 14.304688 0.398438 12.296875 -0.359375 C 10.296875 -1.117188 8.550781 -2.226562 7.0625 -3.6875 C 5.582031 -5.15625 4.425781 -6.9375 3.59375 -9.03125 C 2.769531 -11.125 2.359375 -13.519531 2.359375 -16.21875 C 2.359375 -18.84375 2.789062 -21.210938 3.65625 -23.328125 C 4.53125 -25.441406 5.675781 -27.226562 7.09375 -28.6875 C 8.507812 -30.144531 10.132812 -31.265625 11.96875 -32.046875 C 13.800781 -32.835938 15.695312 -33.234375 17.65625 -33.234375 C 19.96875 -33.234375 21.984375 -32.835938 23.703125 -32.046875 C 25.429688 -31.265625 26.875 -30.175781 28.03125 -28.78125 C 29.1875 -27.382812 30.046875 -25.738281 30.609375 -23.84375 C 31.179688 -21.945312 31.46875 -19.882812 31.46875 -17.65625 C 31.46875 -16.789062 31.421875 -15.960938 31.328125 -15.171875 C 31.242188 -14.390625 31.160156 -13.800781 31.078125 -13.40625 L 11.640625 -13.40625 C 12.078125 -11.050781 13.046875 -9.316406 14.546875 -8.203125 C 16.054688 -7.097656 17.898438 -6.546875 20.078125 -6.546875 C 22.390625 -6.546875 24.722656 -7.265625 27.078125 -8.703125 L 30.296875 -2.875 C 28.628906 -1.738281 26.78125 -0.84375 24.75 -0.1875 C 22.726562 0.457031 20.738281 0.78125 18.78125 0.78125 Z M 11.578125 -19.75 L 23.296875 -19.75 C 23.296875 -21.582031 22.878906 -23.066406 22.046875 -24.203125 C 21.210938 -25.335938 19.816406 -25.90625 17.859375 -25.90625 C 16.335938 -25.90625 15 -25.398438 13.84375 -24.390625 C 12.6875 -23.390625 11.929688 -21.84375 11.578125 -19.75 Z M 11.578125 -19.75 "/></g></g></g><g fill="#ffffff" fill-opacity="1"><g transform="translate(286.831199, 79.46678)"><g><path d="M 5.03125 0 L 6.546875 -42.65625 L 15.703125 -42.65625 L 14.328125 -22.171875 C 14.109375 -19.910156 13.898438 -17.632812 13.703125 -15.34375 C 13.503906 -13.050781 13.273438 -10.769531 13.015625 -8.5 L 13.28125 -8.5 C 14.15625 -10.769531 15.082031 -13.0625 16.0625 -15.375 C 17.039062 -17.6875 17.96875 -19.953125 18.84375 -22.171875 L 27.609375 -42.65625 L 35.203125 -42.65625 L 35.328125 -22.171875 C 35.285156 -19.953125 35.21875 -17.695312 35.125 -15.40625 C 35.039062 -13.113281 34.957031 -10.8125 34.875 -8.5 L 35.125 -8.5 C 35.914062 -10.8125 36.722656 -13.113281 37.546875 -15.40625 C 38.378906 -17.695312 39.164062 -19.953125 39.90625 -22.171875 L 47.109375 -42.65625 L 55.671875 -42.65625 L 39.125 0 L 27.796875 0 L 28.0625 -20.40625 C 28.0625 -21.800781 28.113281 -23.394531 28.21875 -25.1875 C 28.332031 -26.976562 28.476562 -28.703125 28.65625 -30.359375 L 28.390625 -30.359375 C 27.785156 -28.742188 27.144531 -27.09375 26.46875 -25.40625 C 25.789062 -23.726562 25.144531 -22.0625 24.53125 -20.40625 L 16.15625 0 Z M 5.03125 0 "/></g></g></g><g fill="#ffffff" fill-opacity="1"><g transform="translate(338.772257, 79.46678)"><g><path d="M 11.1875 0.78125 C 8.3125 0.78125 6.066406 -0.238281 4.453125 -2.28125 C 2.835938 -4.332031 2.03125 -7.28125 2.03125 -11.125 C 2.03125 -14.21875 2.507812 -17.101562 3.46875 -19.78125 C 4.425781 -22.46875 5.710938 -24.8125 7.328125 -26.8125 C 8.941406 -28.820312 10.796875 -30.394531 12.890625 -31.53125 C 14.984375 -32.664062 17.140625 -33.234375 19.359375 -33.234375 C 20.847656 -33.234375 22.242188 -32.847656 23.546875 -32.078125 C 24.859375 -31.316406 25.820312 -30.285156 26.4375 -28.984375 L 26.5625 -28.984375 L 28 -32.453125 L 35.125 -32.453125 L 28.65625 0 L 21.390625 0 L 21.53125 -4.25 L 21.328125 -4.25 C 19.847656 -2.726562 18.210938 -1.507812 16.421875 -0.59375 C 14.628906 0.320312 12.882812 0.78125 11.1875 0.78125 Z M 15.109375 -6.546875 C 16.203125 -6.546875 17.367188 -6.878906 18.609375 -7.546875 C 19.859375 -8.222656 21.003906 -9.476562 22.046875 -11.3125 L 24.34375 -22.828125 C 23.8125 -23.921875 23.140625 -24.707031 22.328125 -25.1875 C 21.523438 -25.664062 20.753906 -25.90625 20.015625 -25.90625 C 18.878906 -25.90625 17.785156 -25.554688 16.734375 -24.859375 C 15.691406 -24.160156 14.765625 -23.203125 13.953125 -21.984375 C 13.148438 -20.765625 12.507812 -19.320312 12.03125 -17.65625 C 11.550781 -16 11.3125 -14.191406 11.3125 -12.234375 C 11.3125 -10.273438 11.648438 -8.835938 12.328125 -7.921875 C 13.003906 -7.003906 13.929688 -6.546875 15.109375 -6.546875 Z M 15.109375 -6.546875 "/></g></g></g><g fill="#ffffff" fill-opacity="1"><g transform="translate(374.882409, 79.46678)"><g><path d="M 11.125 0.78125 C 10.113281 0.78125 9.0625 0.640625 7.96875 0.359375 C 6.882812 0.078125 5.828125 -0.320312 4.796875 -0.84375 C 3.773438 -1.375 2.796875 -2.03125 1.859375 -2.8125 C 0.921875 -3.59375 0.128906 -4.488281 -0.515625 -5.5 L 4.640625 -9.8125 C 6.910156 -7.101562 9.242188 -5.75 11.640625 -5.75 C 12.910156 -5.75 13.988281 -6.046875 14.875 -6.640625 C 15.769531 -7.234375 16.21875 -7.960938 16.21875 -8.828125 C 16.21875 -9.785156 15.738281 -10.570312 14.78125 -11.1875 C 13.820312 -11.800781 12.425781 -12.628906 10.59375 -13.671875 C 8.757812 -14.671875 7.210938 -15.898438 5.953125 -17.359375 C 4.691406 -18.828125 4.0625 -20.585938 4.0625 -22.640625 C 4.0625 -24.160156 4.382812 -25.570312 5.03125 -26.875 C 5.6875 -28.1875 6.582031 -29.3125 7.71875 -30.25 C 8.851562 -31.195312 10.179688 -31.929688 11.703125 -32.453125 C 13.234375 -32.972656 14.867188 -33.234375 16.609375 -33.234375 C 18.835938 -33.234375 20.832031 -32.753906 22.59375 -31.796875 C 24.363281 -30.835938 25.925781 -29.660156 27.28125 -28.265625 L 22.375 -23.625 C 21.59375 -24.445312 20.71875 -25.140625 19.75 -25.703125 C 18.789062 -26.273438 17.742188 -26.5625 16.609375 -26.5625 C 15.347656 -26.5625 14.335938 -26.265625 13.578125 -25.671875 C 12.816406 -25.085938 12.4375 -24.359375 12.4375 -23.484375 C 12.4375 -22.960938 12.585938 -22.503906 12.890625 -22.109375 C 13.191406 -21.722656 13.601562 -21.363281 14.125 -21.03125 C 14.65625 -20.707031 15.234375 -20.378906 15.859375 -20.046875 C 16.492188 -19.722656 17.140625 -19.363281 17.796875 -18.96875 C 19.753906 -17.925781 21.375 -16.707031 22.65625 -15.3125 C 23.945312 -13.914062 24.59375 -12.101562 24.59375 -9.875 C 24.59375 -8.3125 24.253906 -6.875 23.578125 -5.5625 C 22.910156 -4.25 21.984375 -3.125 20.796875 -2.1875 C 19.617188 -1.25 18.203125 -0.519531 16.546875 0 C 14.890625 0.519531 13.082031 0.78125 11.125 0.78125 Z M 11.125 0.78125 "/></g></g></g><g fill="#ffffff" fill-opacity="1"><g transform="translate(402.619192, 79.46678)"><g><path d="M 13.28125 0.78125 C 10.007812 0.78125 7.65625 -0.0234375 6.21875 -1.640625 C 4.78125 -3.253906 4.0625 -5.300781 4.0625 -7.78125 C 4.0625 -8.476562 4.113281 -9.164062 4.21875 -9.84375 C 4.332031 -10.519531 4.453125 -11.207031 4.578125 -11.90625 L 7.390625 -25.453125 L 3.078125 -25.453125 L 4.390625 -32.0625 L 9.15625 -32.453125 L 11.90625 -40.953125 L 19.4375 -40.953125 L 17.796875 -32.453125 L 25.1875 -32.453125 L 23.8125 -25.453125 L 16.21875 -25.453125 L 13.40625 -11.515625 C 13.320312 -11.117188 13.28125 -10.742188 13.28125 -10.390625 C 13.28125 -10.046875 13.28125 -9.703125 13.28125 -9.359375 C 13.28125 -7.265625 14.390625 -6.21875 16.609375 -6.21875 C 17.097656 -6.21875 17.554688 -6.28125 17.984375 -6.40625 C 18.421875 -6.539062 18.859375 -6.71875 19.296875 -6.9375 L 20.875 -0.65625 C 20 -0.300781 18.925781 0.0234375 17.65625 0.328125 C 16.394531 0.628906 14.9375 0.78125 13.28125 0.78125 Z M 13.28125 0.78125 "/></g></g></g><g fill="#ffffff" fill-opacity="1"><g transform="translate(426.627213, 79.46678)"><g><path d="M 1.890625 -13.078125 C 1.890625 -16.085938 2.425781 -18.820312 3.5 -21.28125 C 4.570312 -23.75 5.96875 -25.867188 7.6875 -27.640625 C 9.40625 -29.410156 11.332031 -30.785156 13.46875 -31.765625 C 15.613281 -32.742188 17.773438 -33.234375 19.953125 -33.234375 C 21.867188 -33.234375 23.503906 -32.914062 24.859375 -32.28125 C 26.210938 -31.65625 27.3125 -30.785156 28.15625 -29.671875 C 29.007812 -28.554688 29.617188 -27.269531 29.984375 -25.8125 C 30.359375 -24.351562 30.546875 -22.769531 30.546875 -21.0625 C 30.546875 -20.28125 30.476562 -19.503906 30.34375 -18.734375 C 30.21875 -17.972656 30.066406 -17.253906 29.890625 -16.578125 C 29.722656 -15.910156 29.539062 -15.320312 29.34375 -14.8125 C 29.144531 -14.3125 28.976562 -13.929688 28.84375 -13.671875 L 10.40625 -13.671875 C 10.269531 -10.960938 10.910156 -9 12.328125 -7.78125 C 13.742188 -6.5625 15.519531 -5.953125 17.65625 -5.953125 C 18.664062 -5.953125 19.710938 -6.191406 20.796875 -6.671875 C 21.890625 -7.148438 22.851562 -7.675781 23.6875 -8.25 L 26.828125 -2.609375 C 25.515625 -1.703125 23.875 -0.910156 21.90625 -0.234375 C 19.945312 0.441406 17.703125 0.78125 15.171875 0.78125 C 13.210938 0.78125 11.414062 0.46875 9.78125 -0.15625 C 8.144531 -0.789062 6.75 -1.707031 5.59375 -2.90625 C 4.4375 -4.101562 3.53125 -5.550781 2.875 -7.25 C 2.21875 -8.957031 1.890625 -10.898438 1.890625 -13.078125 Z M 11.125 -19.171875 L 22.890625 -19.171875 C 23.109375 -19.910156 23.21875 -20.71875 23.21875 -21.59375 C 23.21875 -22.894531 22.898438 -24.015625 22.265625 -24.953125 C 21.640625 -25.890625 20.5 -26.359375 18.84375 -26.359375 C 17.3125 -26.359375 15.828125 -25.757812 14.390625 -24.5625 C 12.953125 -23.363281 11.863281 -21.566406 11.125 -19.171875 Z M 11.125 -19.171875 "/></g></g></g><g clip-path="url(#b55753a418)"><g clip-path="url(#1d84e0cf66)"><g clip-path="url(#7538f21b94)"><path fill="#ffffff" d="M 124.875 104.328125 C 136.355469 108.089844 148.210938 107.082031 159.441406 101.796875 C 160.679688 101.214844 162.164062 101.722656 162.777344 102.949219 L 162.832031 103.050781 C 163.445312 104.277344 162.957031 105.777344 161.726562 106.386719 C 149.574219 112.449219 135.972656 113.515625 123.230469 109.339844 C 110.480469 105.164062 100.152344 96.265625 93.9375 84.1875 C 93.3125 82.964844 93.796875 81.464844 95.019531 80.84375 L 95.125 80.792969 C 96.351562 80.167969 97.84375 80.632812 98.5 81.835938 C 104.421875 92.738281 113.386719 100.5625 124.875 104.328125 Z M 124.875 104.328125 " fill-opacity="1" fill-rule="nonzero"/></g></g></g></svg>